<svg width="19" height="20" fill="none" xmlns="http://www.w3.org/2000/svg"><g clip-path="url(#clip0_774_6177)"><path d="M15.629 15.94c3.388-3.423 3.388-8.973 0-12.396a8.612 8.612 0 00-12.268 0c-3.388 3.423-3.388 8.973 0 12.396a8.612 8.612 0 0012.268 0z" fill="#1D1E1D"/><path d="M18.702 8.768C18.219 4.061 14.282.391 9.495.391 4.708.39.772 4.06.289 8.768h18.413z" fill="url(#paint0_linear_774_6177)"/><path d="M.29 10.715c.482 4.707 4.42 8.378 9.205 8.378s8.724-3.67 9.206-8.378H.289z" fill="#E7E7E9"/><path d="M9.495 12.69c1.61 0 2.916-1.319 2.916-2.946 0-1.628-1.306-2.947-2.916-2.947-1.611 0-2.917 1.32-2.917 2.947s1.306 2.946 2.917 2.946z" fill="#1D1E1D"/><path d="M9.493 12.046c1.259 0 2.28-1.03 2.28-2.302S10.751 7.44 9.492 7.44c-1.258 0-2.278 1.031-2.278 2.303 0 1.271 1.02 2.302 2.278 2.302z" fill="#F7F7F7"/><path d="M9.495 11.299c.85 0 1.538-.696 1.538-1.554 0-.858-.689-1.554-1.538-1.554-.85 0-1.538.696-1.538 1.554 0 .858.689 1.554 1.538 1.554z" fill="#B8B5B5"/><path d="M9.495 11.183c.786 0 1.424-.644 1.424-1.44 0-.794-.638-1.438-1.424-1.438-.787 0-1.425.644-1.425 1.439s.638 1.439 1.425 1.439z" fill="#F7F7F7"/></g><defs><linearGradient id="paint0_linear_774_6177" x1="20.264" y1="7.403" x2="3.667" y2="7.748" gradientUnits="userSpaceOnUse"><stop stop-color="#B57E10"/><stop offset=".241" stop-color="#B57E10"/><stop offset=".404" stop-color="#F9DF7B"/><stop offset=".594" stop-color="#FFF3A6"/><stop offset=".781" stop-color="#F9DF7B"/><stop offset="1" stop-color="#B57E10"/></linearGradient><clipPath id="clip0_774_6177"><path fill="#fff" transform="translate(.29 .39)" d="M0 0h18.413v18.704H0z"/></clipPath></defs></svg>